<?xml version="1.0"?>
<svg version="1.1" xmlns="http://www.w3.org/2000/svg" width="340" height="75" style=""><path fill="#" d="M17.2,67.4l3.1,0l0-21.15q0-4.2,3.2-7.4t7.4-3.2q4.1,0,7.4,3.2q3.15,3.15,3.15,7.4l0,21.15l3.2,0l0-21.15q0-4.3,3.2-7.4q3.2-3.2,7.35-3.2q4.2,0,7.4,3.2t3.2,7.4l0,21.15l3.1,0l0-21.15q0-5.7-4-9.7t-9.7-4q-3.75,0-7.05,2.05q-3.35,2.1-4.8,5.35q-1.95-3.35-5.25-5.35q-3.45-2.05-7.2-2.05q-5.65,0-9.65,4q-4.05,4.05-4.05,9.7l0,21.15z M90.392,32.5q-5.65,0-9.7,4.05q-4.1,4.1-4.1,9.75l0,7.55q0,5.55,4.1,9.65t9.7,4.1q5.65,0,9.75-4.1q4.05-4.05,4.05-9.65l0-7.55q0-5.7-4.05-9.75t-9.75-4.05z M101.092,46.3l0,7.55q0,4.55-3.2,7.65q-3.15,3-7.5,3t-7.45-3q-3.2-3.1-3.2-7.65l0-7.55q0-4.2,3.2-7.5q3.2-3.2,7.45-3.2q4.2,0,7.5,3.2q3.2,3.3,3.2,7.5z M134.134,67.5l5.05,0l-22.35-17.85l22.35-17.2l-5.05,0l-19.2,15.3l0-15.3l-3.15,0l0,35.05l3.15,0l0-15.3z M149.176,57.9q0-2.4,1.7-4.35q1.7-2.05,4.1-2.05l0.65,0l9.35,0l0-3.1l-9.35,0l-0.65,0q-2.55-0.5-4.175-2.2t-1.625-4.05q0-2.95,1.725-4.675t4.725-1.725l17,0l0-3.15l-17,0q-3.85,0-6.7,2.85q-2.85,2.75-2.85,6.7q0,2.5,0.95,4.55t2.8,2.95q-1.85,1.35-2.8,3.55t-0.95,4.7q0,3.9,2.85,6.65q2.9,2.9,6.7,2.9l17,0l0-3.3l-17,0q-3,0-4.725-1.7t-1.725-4.55z"/><path fill="#" d="M184.975,71.757l3.591,0l0-40.071l-3.591,0l0,40.071z M227.08888,31.8l-30.894,0l0,3.477l14.022,0l0,36.537l3.534,0l0-36.537l13.338,0l0-3.477z M237.62476,60.756q0-2.736,1.938-4.959q1.938-2.337,4.674-2.337l0.741,0l10.659,0l0-3.534l-10.659,0l-0.741,0q-2.907-0.57-4.7595-2.508t-1.8525-4.617q0-3.363,1.9665-5.3295t5.3865-1.9665l19.38,0l0-3.591l-19.38,0q-4.389,0-7.638,3.249q-3.249,3.135-3.249,7.638q0,2.85,1.083,5.187t3.192,3.363q-2.109,1.539-3.192,4.047t-1.083,5.358q0,4.446,3.249,7.581q3.306,3.306,7.638,3.306l19.38,0l0-3.762l-19.38,0q-3.42,0-5.3865-1.938t-1.9665-5.187z M301.22764,71.7l0-3.591l-10.146,0q-7.068,0-11.856-4.788t-4.788-11.856q0-6.498,4.788-11.172t11.856-4.674l10.146,0l0-3.705l-10.146,0q-8.607,0-14.421,5.7q-5.814,5.643-5.814,13.851q0,8.721,5.814,14.421q5.7,5.814,14.421,5.814l10.146,0z M340.26352,31.686l-3.591,0l0,18.24l-24.054,0l0-18.24l-3.591,0l0,40.014l3.591,0l0-18.183l24.054,0l0,18.183l3.591,0l0-40.014z"/></svg>
